<svg width="84" height="900" viewBox="0 0 84 900" fill="none" xmlns="http://www.w3.org/2000/svg">
<mask id="path-1-inside-1_2382_22263" fill="white">
<path d="M0 0H74V900H0V0Z"/>
</mask>
<path d="M0 0H74V900H0V0Z" fill="white"/>
<path d="M74 0H73V900H74H75V0H74Z" fill="#E0E0E0" mask="url(#path-1-inside-1_2382_22263)"/>
<path d="M46 31H28V33H46V31Z" fill="#212121" fill-opacity="0.5"/>
<path d="M46 47H28V49H46V47Z" fill="#212121" fill-opacity="0.5"/>
<path d="M46 39H28V41H46V39Z" fill="#212121" fill-opacity="0.5"/>
<path d="M18.5092 87.0348C18.4131 86.7332 18.2839 86.4631 18.1214 86.2244C17.9624 85.9825 17.7718 85.777 17.5497 85.608C17.3277 85.4356 17.0741 85.3047 16.7891 85.2152C16.5073 85.1257 16.1974 85.081 15.8594 85.081C15.286 85.081 14.7689 85.2285 14.3082 85.5234C13.8475 85.8184 13.483 86.2509 13.2145 86.821C12.9493 87.3878 12.8168 88.0821 12.8168 88.9041C12.8168 89.7294 12.951 90.4271 13.2195 90.9972C13.4879 91.5672 13.8558 91.9998 14.3232 92.2947C14.7905 92.5897 15.3224 92.7372 15.919 92.7372C16.4725 92.7372 16.9548 92.6245 17.3658 92.3991C17.7801 92.1738 18.0999 91.8556 18.3253 91.4446C18.554 91.0303 18.6683 90.5431 18.6683 89.983L19.0661 90.0575H16.1527V88.7898H20.1548V89.9482C20.1548 90.8033 19.9725 91.5457 19.608 92.1754C19.2467 92.8018 18.7462 93.2857 18.1065 93.6271C17.4702 93.9685 16.741 94.1392 15.919 94.1392C14.9976 94.1392 14.1889 93.9271 13.4929 93.5028C12.8002 93.0786 12.2599 92.477 11.8722 91.6982C11.4844 90.916 11.2905 89.9879 11.2905 88.9141C11.2905 88.102 11.4032 87.3729 11.6286 86.7266C11.8539 86.0803 12.1705 85.5317 12.5781 85.081C12.9891 84.6269 13.4714 84.2805 14.0249 84.0419C14.5817 83.8 15.1899 83.679 15.8494 83.679C16.3996 83.679 16.9117 83.7602 17.3857 83.9226C17.8629 84.085 18.2872 84.3153 18.6584 84.6136C19.0329 84.9119 19.3428 85.2666 19.5881 85.6776C19.8333 86.0852 19.9991 86.5376 20.0852 87.0348H18.5092ZM25.3768 94.1541C24.6244 94.1541 23.9765 93.9934 23.4329 93.6719C22.8927 93.3471 22.4751 92.8913 22.1801 92.3047C21.8884 91.7147 21.7426 91.0237 21.7426 90.2315C21.7426 89.4493 21.8884 88.7599 22.1801 88.1634C22.4751 87.5668 22.886 87.1011 23.413 86.7663C23.9433 86.4316 24.5631 86.2642 25.2724 86.2642C25.7033 86.2642 26.1209 86.3355 26.5252 86.478C26.9296 86.6205 27.2925 86.8442 27.614 87.1491C27.9355 87.4541 28.1891 87.8501 28.3747 88.3374C28.5603 88.8213 28.6531 89.4096 28.6531 90.1023V90.6293H22.5828V89.5156H27.1964C27.1964 89.1245 27.1169 88.7782 26.9578 88.4766C26.7987 88.1716 26.575 87.9313 26.2866 87.7557C26.0016 87.58 25.6668 87.4922 25.2824 87.4922C24.8647 87.4922 24.5002 87.5949 24.1886 87.8004C23.8804 88.0026 23.6417 88.2678 23.4727 88.5959C23.307 88.9207 23.2241 89.2737 23.2241 89.6548V90.5249C23.2241 91.0353 23.3136 91.4695 23.4926 91.8274C23.6749 92.1854 23.9284 92.4588 24.2532 92.6477C24.578 92.8333 24.9575 92.9261 25.3917 92.9261C25.6734 92.9261 25.9303 92.8864 26.1623 92.8068C26.3943 92.724 26.5949 92.6013 26.7639 92.4389C26.9329 92.2765 27.0622 92.076 27.1517 91.8374L28.5586 92.0909C28.4459 92.5052 28.2438 92.8681 27.9521 93.1797C27.6637 93.4879 27.3008 93.7282 26.8633 93.9006C26.4291 94.0696 25.9336 94.1541 25.3768 94.1541ZM31.8889 89.4659V94H30.4024V86.3636H31.8293V87.6065H31.9237C32.0994 87.2022 32.3745 86.8774 32.749 86.6321C33.1268 86.3868 33.6025 86.2642 34.1759 86.2642C34.6962 86.2642 35.1519 86.3736 35.543 86.5923C35.9341 86.8078 36.2374 87.1293 36.4528 87.5568C36.6683 87.9844 36.776 88.513 36.776 89.1428V94H35.2895V89.3217C35.2895 88.7682 35.1453 88.3357 34.857 88.0241C34.5686 87.7093 34.1725 87.5518 33.6688 87.5518C33.3241 87.5518 33.0175 87.6264 32.749 87.7756C32.4839 87.9247 32.2734 88.1435 32.1176 88.4318C31.9652 88.7169 31.8889 89.0616 31.8889 89.4659ZM42.1608 94.1541C41.4084 94.1541 40.7605 93.9934 40.2169 93.6719C39.6767 93.3471 39.259 92.8913 38.9641 92.3047C38.6724 91.7147 38.5266 91.0237 38.5266 90.2315C38.5266 89.4493 38.6724 88.7599 38.9641 88.1634C39.259 87.5668 39.67 87.1011 40.197 86.7663C40.7273 86.4316 41.3471 86.2642 42.0564 86.2642C42.4873 86.2642 42.9049 86.3355 43.3092 86.478C43.7136 86.6205 44.0765 86.8442 44.398 87.1491C44.7195 87.4541 44.9731 87.8501 45.1587 88.3374C45.3443 88.8213 45.4371 89.4096 45.4371 90.1023V90.6293H39.3668V89.5156H43.9804C43.9804 89.1245 43.9009 88.7782 43.7418 88.4766C43.5827 88.1716 43.3589 87.9313 43.0706 87.7557C42.7856 87.58 42.4508 87.4922 42.0663 87.4922C41.6487 87.4922 41.2841 87.5949 40.9726 87.8004C40.6643 88.0026 40.4257 88.2678 40.2567 88.5959C40.091 88.9207 40.0081 89.2737 40.0081 89.6548V90.5249C40.0081 91.0353 40.0976 91.4695 40.2766 91.8274C40.4589 92.1854 40.7124 92.4588 41.0372 92.6477C41.362 92.8333 41.7415 92.9261 42.1757 92.9261C42.4574 92.9261 42.7143 92.8864 42.9463 92.8068C43.1783 92.724 43.3788 92.6013 43.5479 92.4389C43.7169 92.2765 43.8462 92.076 43.9357 91.8374L45.3426 92.0909C45.2299 92.5052 45.0277 92.8681 44.7361 93.1797C44.4477 93.4879 44.0848 93.7282 43.6473 93.9006C43.2131 94.0696 42.7176 94.1541 42.1608 94.1541ZM47.1864 94V86.3636H48.6232V87.5767H48.7027C48.8419 87.1657 49.0872 86.8426 49.4385 86.6072C49.7932 86.3686 50.1942 86.2493 50.6417 86.2493C50.7345 86.2493 50.8438 86.2526 50.9698 86.2592C51.099 86.2659 51.2001 86.2741 51.273 86.2841V87.706C51.2134 87.6894 51.1073 87.6712 50.9549 87.6513C50.8024 87.6281 50.6499 87.6165 50.4975 87.6165C50.1462 87.6165 49.8329 87.6911 49.5578 87.8402C49.2861 87.986 49.0706 88.1899 48.9115 88.4517C48.7525 88.7102 48.6729 89.0052 48.6729 89.3366V94H47.1864ZM54.8134 94.169C54.3295 94.169 53.892 94.0795 53.5009 93.9006C53.1098 93.7183 52.7999 93.4548 52.5712 93.1101C52.3458 92.7654 52.2331 92.3428 52.2331 91.8423C52.2331 91.4115 52.316 91.0568 52.4817 90.7784C52.6474 90.5 52.8712 90.2796 53.1529 90.1172C53.4346 89.9548 53.7495 89.8321 54.0975 89.7493C54.4455 89.6664 54.8001 89.6035 55.1614 89.5604C55.6188 89.5073 55.99 89.4643 56.275 89.4311C56.5601 89.3946 56.7672 89.3366 56.8965 89.2571C57.0257 89.1776 57.0904 89.0483 57.0904 88.8693V88.8345C57.0904 88.4003 56.9677 88.0639 56.7225 87.8253C56.4805 87.5866 56.1193 87.4673 55.6387 87.4673C55.1382 87.4673 54.7438 87.5784 54.4554 87.8004C54.1704 88.0192 53.9732 88.2628 53.8638 88.5312L52.4668 88.2131C52.6325 87.7491 52.8745 87.3745 53.1926 87.0895C53.5141 86.8011 53.8837 86.5923 54.3013 86.4631C54.7189 86.3305 55.1581 86.2642 55.6188 86.2642C55.9237 86.2642 56.2469 86.3007 56.5882 86.3736C56.9329 86.4432 57.2544 86.5724 57.5527 86.7614C57.8543 86.9503 58.1013 87.2204 58.2935 87.5717C58.4857 87.9197 58.5819 88.3722 58.5819 88.929V94H57.1301V92.956H57.0705C56.9744 93.1482 56.8302 93.3371 56.638 93.5227C56.4457 93.7083 56.1988 93.8625 55.8972 93.9851C55.5956 94.1077 55.2343 94.169 54.8134 94.169ZM55.1365 92.9759C55.5475 92.9759 55.8989 92.8946 56.1905 92.7322C56.4855 92.5698 56.7092 92.3577 56.8617 92.0959C57.0175 91.8307 57.0953 91.5473 57.0953 91.2457V90.2614C57.0423 90.3144 56.9396 90.3641 56.7871 90.4105C56.638 90.4536 56.4673 90.4917 56.275 90.5249C56.0828 90.5547 55.8955 90.5829 55.7132 90.6094C55.531 90.6326 55.3785 90.6525 55.2559 90.669C54.9675 90.7055 54.704 90.7668 54.4654 90.853C54.2301 90.9392 54.0411 91.0634 53.8986 91.2259C53.7594 91.3849 53.6898 91.5971 53.6898 91.8622C53.6898 92.2301 53.8257 92.5085 54.0975 92.6974C54.3693 92.883 54.7156 92.9759 55.1365 92.9759ZM62.1483 83.8182V94H60.6618V83.8182H62.1483Z" fill="black" fill-opacity="0.38"/>
<path d="M44 131V133H40V131H44ZM34 131V137H30V131H34ZM44 139V145H40V139H44ZM34 143V145H30V143H34ZM46 129H38V135H46V129ZM36 129H28V139H36V129ZM46 137H38V147H46V137ZM36 141H28V147H36V141Z" fill="#212121" fill-opacity="0.5"/>
<path d="M47 199V191H40V194H34V191H27V199H34V196H36V206H40V209H47V201H40V204H38V196H40V199H47ZM32 197H29V193H32V197ZM42 203H45V207H42V203ZM42 193H45V197H42V193Z" fill="#212121" fill-opacity="0.5"/>
<path d="M14.9787 254H13.348L17.0121 243.818H18.7869L22.451 254H20.8203L17.9418 245.668H17.8622L14.9787 254ZM15.2521 250.013H20.5419V251.305H15.2521V250.013ZM26.9807 257.023C26.3741 257.023 25.8521 256.943 25.4146 256.784C24.9804 256.625 24.6258 256.415 24.3507 256.153C24.0756 255.891 23.8701 255.604 23.7342 255.293L25.0119 254.766C25.1014 254.911 25.2207 255.066 25.3699 255.228C25.5223 255.394 25.7278 255.535 25.9864 255.651C26.2482 255.767 26.5846 255.825 26.9956 255.825C27.559 255.825 28.0247 255.687 28.3926 255.412C28.7605 255.14 28.9445 254.706 28.9445 254.109V252.608H28.85C28.7605 252.77 28.6313 252.951 28.4622 253.15C28.2965 253.349 28.0678 253.521 27.7761 253.667C27.4845 253.813 27.105 253.886 26.6376 253.886C26.0344 253.886 25.4909 253.745 25.007 253.463C24.5264 253.178 24.1452 252.759 23.8635 252.205C23.5851 251.648 23.4459 250.964 23.4459 250.152C23.4459 249.34 23.5834 248.644 23.8585 248.064C24.1369 247.484 24.5181 247.04 25.002 246.732C25.4859 246.42 26.0344 246.264 26.6476 246.264C27.1215 246.264 27.5044 246.344 27.796 246.503C28.0877 246.659 28.3147 246.841 28.4771 247.05C28.6429 247.259 28.7705 247.442 28.8599 247.602H28.9693V246.364H30.426V254.169C30.426 254.825 30.2735 255.364 29.9686 255.785C29.6637 256.206 29.251 256.517 28.7307 256.719C28.2136 256.922 27.6303 257.023 26.9807 257.023ZM26.9658 252.653C27.3933 252.653 27.7546 252.553 28.0496 252.354C28.3479 252.152 28.5732 251.864 28.7257 251.489C28.8815 251.112 28.9594 250.659 28.9594 250.132C28.9594 249.618 28.8831 249.166 28.7307 248.775C28.5782 248.384 28.3545 248.079 28.0595 247.86C27.7645 247.638 27.4 247.527 26.9658 247.527C26.5183 247.527 26.1455 247.643 25.8472 247.875C25.5489 248.104 25.3235 248.415 25.171 248.81C25.0219 249.204 24.9473 249.645 24.9473 250.132C24.9473 250.633 25.0235 251.072 25.176 251.45C25.3285 251.827 25.5538 252.122 25.8521 252.335C26.1537 252.547 26.525 252.653 26.9658 252.653ZM35.8108 254.154C35.0584 254.154 34.4105 253.993 33.8669 253.672C33.3267 253.347 32.909 252.891 32.6141 252.305C32.3224 251.715 32.1766 251.024 32.1766 250.232C32.1766 249.449 32.3224 248.76 32.6141 248.163C32.909 247.567 33.32 247.101 33.847 246.766C34.3773 246.432 34.9971 246.264 35.7064 246.264C36.1373 246.264 36.5549 246.335 36.9592 246.478C37.3636 246.621 37.7265 246.844 38.048 247.149C38.3695 247.454 38.6231 247.85 38.8087 248.337C38.9943 248.821 39.0871 249.41 39.0871 250.102V250.629H33.0168V249.516H37.6304C37.6304 249.125 37.5509 248.778 37.3918 248.477C37.2327 248.172 37.0089 247.931 36.7206 247.756C36.4356 247.58 36.1008 247.492 35.7163 247.492C35.2987 247.492 34.9341 247.595 34.6226 247.8C34.3143 248.003 34.0757 248.268 33.9067 248.596C33.741 248.921 33.6581 249.274 33.6581 249.655V250.525C33.6581 251.035 33.7476 251.469 33.9266 251.827C34.1089 252.185 34.3624 252.459 34.6872 252.648C35.012 252.833 35.3915 252.926 35.8257 252.926C36.1074 252.926 36.3643 252.886 36.5963 252.807C36.8283 252.724 37.0288 252.601 37.1979 252.439C37.3669 252.277 37.4962 252.076 37.5857 251.837L38.9926 252.091C38.8799 252.505 38.6777 252.868 38.3861 253.18C38.0977 253.488 37.7348 253.728 37.2973 253.901C36.8631 254.07 36.3676 254.154 35.8108 254.154ZM42.3229 249.466V254H40.8364V246.364H42.2632V247.607H42.3577C42.5334 247.202 42.8085 246.877 43.183 246.632C43.5608 246.387 44.0364 246.264 44.6098 246.264C45.1302 246.264 45.5859 246.374 45.977 246.592C46.3681 246.808 46.6714 247.129 46.8868 247.557C47.1023 247.984 47.21 248.513 47.21 249.143V254H45.7235V249.322C45.7235 248.768 45.5793 248.336 45.2909 248.024C45.0026 247.709 44.6065 247.552 44.1027 247.552C43.758 247.552 43.4515 247.626 43.183 247.776C42.9178 247.925 42.7074 248.143 42.5516 248.432C42.3991 248.717 42.3229 249.062 42.3229 249.466ZM52.8682 246.364V247.557H48.6971V246.364H52.8682ZM49.8157 244.534H51.3022V251.758C51.3022 252.046 51.3453 252.263 51.4314 252.409C51.5176 252.552 51.6286 252.649 51.7645 252.702C51.9037 252.752 52.0545 252.777 52.2169 252.777C52.3363 252.777 52.4407 252.769 52.5302 252.752C52.6196 252.736 52.6892 252.722 52.739 252.712L53.0074 253.94C52.9212 253.973 52.7986 254.007 52.6395 254.04C52.4804 254.076 52.2816 254.096 52.0429 254.099C51.6518 254.106 51.2873 254.036 50.9492 253.891C50.6111 253.745 50.3377 253.519 50.1289 253.214C49.9201 252.91 49.8157 252.527 49.8157 252.066V244.534ZM60.2118 248.228L58.8645 248.467C58.8082 248.294 58.7187 248.13 58.5961 247.974C58.4767 247.819 58.3143 247.691 58.1088 247.592C57.9034 247.492 57.6465 247.442 57.3382 247.442C56.9173 247.442 56.566 247.537 56.2843 247.726C56.0025 247.911 55.8617 248.152 55.8617 248.447C55.8617 248.702 55.9561 248.907 56.1451 249.063C56.334 249.219 56.6389 249.347 57.0598 249.446L58.2729 249.724C58.9756 249.887 59.4992 250.137 59.8439 250.475C60.1886 250.813 60.361 251.252 60.361 251.793C60.361 252.25 60.2284 252.658 59.9632 253.016C59.7014 253.37 59.3352 253.649 58.8645 253.851C58.3972 254.053 57.8553 254.154 57.2388 254.154C56.3837 254.154 55.686 253.972 55.1458 253.607C54.6055 253.239 54.2741 252.717 54.1515 252.041L55.5882 251.822C55.6777 252.197 55.8617 252.48 56.1401 252.673C56.4185 252.862 56.7814 252.956 57.2289 252.956C57.7161 252.956 58.1055 252.855 58.3972 252.653C58.6889 252.447 58.8347 252.197 58.8347 251.902C58.8347 251.663 58.7452 251.463 58.5662 251.3C58.3906 251.138 58.1204 251.015 57.7559 250.933L56.4632 250.649C55.7507 250.487 55.2237 250.228 54.8823 249.874C54.5442 249.519 54.3752 249.07 54.3752 248.526C54.3752 248.076 54.5011 247.681 54.753 247.343C55.0049 247.005 55.3529 246.741 55.7971 246.553C56.2412 246.36 56.7499 246.264 57.3233 246.264C58.1486 246.264 58.7982 246.443 59.2722 246.801C59.7462 247.156 60.0594 247.631 60.2118 248.228Z" fill="black" fill-opacity="0.38"/>
<path d="M45 295.5V293.5C45 292.4 44.1 291.5 43 291.5H40C40 289.84 38.66 288.5 37 288.5C35.34 288.5 34 289.84 34 291.5H31C29.9 291.5 29 292.4 29 293.5V295.5C27.34 295.5 26 296.84 26 298.5C26 300.16 27.34 301.5 29 301.5V305.5C29 306.6 29.9 307.5 31 307.5H43C44.1 307.5 45 306.6 45 305.5V301.5C46.66 301.5 48 300.16 48 298.5C48 296.84 46.66 295.5 45 295.5ZM43 305.5H31V293.5H43V305.5ZM34 299.5C33.17 299.5 32.5 298.83 32.5 298C32.5 297.17 33.17 296.5 34 296.5C34.83 296.5 35.5 297.17 35.5 298C35.5 298.83 34.83 299.5 34 299.5ZM41.5 298C41.5 298.83 40.83 299.5 40 299.5C39.17 299.5 38.5 298.83 38.5 298C38.5 297.17 39.17 296.5 40 296.5C40.83 296.5 41.5 297.17 41.5 298ZM33 301.5H41V303.5H33V301.5Z" fill="#212121" fill-opacity="0.5"/>
<path d="M44.4318 360.98C44.4718 360.66 44.5018 360.34 44.5018 360C44.5018 359.66 44.4718 359.34 44.4318 359.02L46.5418 357.37C46.7318 357.22 46.7818 356.95 46.6618 356.73L44.6618 353.27C44.5718 353.11 44.4018 353.02 44.2218 353.02C44.1618 353.02 44.1018 353.03 44.0518 353.05L41.5618 354.05C41.0418 353.65 40.4818 353.32 39.8718 353.07L39.4918 350.42C39.4618 350.18 39.2518 350 39.0018 350H35.0018C34.7518 350 34.5418 350.18 34.5118 350.42L34.1318 353.07C33.5218 353.32 32.9618 353.66 32.4418 354.05L29.9518 353.05C29.8918 353.03 29.8318 353.02 29.7718 353.02C29.6018 353.02 29.4318 353.11 29.3418 353.27L27.3418 356.73C27.2118 356.95 27.2718 357.22 27.4618 357.37L29.5718 359.02C29.5318 359.34 29.5018 359.67 29.5018 360C29.5018 360.33 29.5318 360.66 29.5718 360.98L27.4618 362.63C27.2718 362.78 27.2218 363.05 27.3418 363.27L29.3418 366.73C29.4318 366.89 29.6018 366.98 29.7818 366.98C29.8418 366.98 29.9018 366.97 29.9518 366.95L32.4418 365.95C32.9618 366.35 33.5218 366.68 34.1318 366.93L34.5118 369.58C34.5418 369.82 34.7518 370 35.0018 370H39.0018C39.2518 370 39.4618 369.82 39.4918 369.58L39.8718 366.93C40.4818 366.68 41.0418 366.34 41.5618 365.95L44.0518 366.95C44.1118 366.97 44.1718 366.98 44.2318 366.98C44.4018 366.98 44.5718 366.89 44.6618 366.73L46.6618 363.27C46.7818 363.05 46.7318 362.78 46.5418 362.63L44.4318 360.98ZM42.4518 359.27C42.4918 359.58 42.5018 359.79 42.5018 360C42.5018 360.21 42.4818 360.43 42.4518 360.73L42.3118 361.86L43.2018 362.56L44.2818 363.4L43.5818 364.61L42.3118 364.1L41.2718 363.68L40.3718 364.36C39.9418 364.68 39.5318 364.92 39.1218 365.09L38.0618 365.52L37.9018 366.65L37.7018 368H36.3018L35.9518 365.52L34.8918 365.09C34.4618 364.91 34.0618 364.68 33.6618 364.38L32.7518 363.68L31.6918 364.11L30.4218 364.62L29.7218 363.41L30.8018 362.57L31.6918 361.87L31.5518 360.74C31.5218 360.43 31.5018 360.2 31.5018 360C31.5018 359.8 31.5218 359.57 31.5518 359.27L31.6918 358.14L30.8018 357.44L29.7218 356.6L30.4218 355.39L31.6918 355.9L32.7318 356.32L33.6318 355.64C34.0618 355.32 34.4718 355.08 34.8818 354.91L35.9418 354.48L36.1018 353.35L36.3018 352H37.6918L38.0418 354.48L39.1018 354.91C39.5318 355.09 39.9318 355.32 40.3318 355.62L41.2418 356.32L42.3018 355.89L43.5718 355.38L44.2718 356.59L43.2018 357.44L42.3118 358.14L42.4518 359.27ZM37.0018 356C34.7918 356 33.0018 357.79 33.0018 360C33.0018 362.21 34.7918 364 37.0018 364C39.2118 364 41.0018 362.21 41.0018 360C41.0018 357.79 39.2118 356 37.0018 356ZM37.0018 362C35.9018 362 35.0018 361.1 35.0018 360C35.0018 358.9 35.9018 358 37.0018 358C38.1018 358 39.0018 358.9 39.0018 360C39.0018 361.1 38.1018 362 37.0018 362Z" fill="#212121" fill-opacity="0.5"/>
<path d="M16.9787 414H15.348L19.0121 403.818H20.7869L24.451 414H22.8203L19.9418 405.668H19.8622L16.9787 414ZM17.2521 410.013H22.5419V411.305H17.2521V410.013ZM28.6376 414.149C28.0212 414.149 27.471 413.992 26.9871 413.677C26.5065 413.359 26.1286 412.906 25.8536 412.32C25.5818 411.73 25.4459 411.022 25.4459 410.197C25.4459 409.371 25.5834 408.665 25.8585 408.079C26.1369 407.492 26.5181 407.043 27.002 406.732C27.4859 406.42 28.0344 406.264 28.6476 406.264C29.1215 406.264 29.5027 406.344 29.7911 406.503C30.0827 406.659 30.3081 406.841 30.4672 407.05C30.6296 407.259 30.7555 407.442 30.845 407.602H30.9345V403.818H32.421V414H30.9693V412.812H30.845C30.7555 412.974 30.6263 413.16 30.4572 413.369C30.2915 413.577 30.0628 413.76 29.7712 413.915C29.4795 414.071 29.1017 414.149 28.6376 414.149ZM28.9658 412.881C29.3933 412.881 29.7546 412.769 30.0496 412.543C30.3479 412.315 30.5732 411.998 30.7257 411.594C30.8815 411.189 30.9594 410.719 30.9594 410.182C30.9594 409.652 30.8831 409.187 30.7307 408.79C30.5782 408.392 30.3545 408.082 30.0595 407.86C29.7645 407.638 29.4 407.527 28.9658 407.527C28.5183 407.527 28.1455 407.643 27.8472 407.875C27.5489 408.107 27.3235 408.424 27.171 408.825C27.0219 409.226 26.9473 409.678 26.9473 410.182C26.9473 410.692 27.0235 411.151 27.176 411.559C27.3285 411.967 27.5538 412.29 27.8521 412.528C28.1537 412.764 28.525 412.881 28.9658 412.881ZM34.6426 414V406.364H36.0695V407.607H36.164C36.323 407.186 36.5832 406.857 36.9445 406.622C37.3058 406.384 37.7383 406.264 38.2421 406.264C38.7525 406.264 39.1801 406.384 39.5248 406.622C39.8728 406.861 40.1296 407.189 40.2953 407.607H40.3749C40.5572 407.199 40.8472 406.874 41.2449 406.632C41.6426 406.387 42.1166 406.264 42.6668 406.264C43.3595 406.264 43.9246 406.481 44.3621 406.915C44.8029 407.35 45.0233 408.004 45.0233 408.879V414H43.5368V409.018C43.5368 408.501 43.396 408.127 43.1142 407.895C42.8325 407.663 42.4961 407.547 42.105 407.547C41.6211 407.547 41.2449 407.696 40.9765 407.994C40.708 408.289 40.5738 408.669 40.5738 409.133V414H39.0922V408.924C39.0922 408.51 38.963 408.177 38.7044 407.925C38.4459 407.673 38.1095 407.547 37.6952 407.547C37.4135 407.547 37.1533 407.621 36.9147 407.771C36.6793 407.916 36.4888 408.12 36.3429 408.382C36.2004 408.644 36.1292 408.947 36.1292 409.292V414H34.6426ZM47.1157 414V406.364H48.6022V414H47.1157ZM47.8664 405.185C47.6079 405.185 47.3858 405.099 47.2002 404.927C47.0179 404.751 46.9268 404.542 46.9268 404.3C46.9268 404.055 47.0179 403.846 47.2002 403.674C47.3858 403.498 47.6079 403.411 47.8664 403.411C48.1249 403.411 48.3453 403.498 48.5276 403.674C48.7132 403.846 48.806 404.055 48.806 404.3C48.806 404.542 48.7132 404.751 48.5276 404.927C48.3453 405.099 48.1249 405.185 47.8664 405.185ZM52.1885 409.466V414H50.702V406.364H52.1289V407.607H52.2233C52.399 407.202 52.6741 406.877 53.0486 406.632C53.4265 406.387 53.9021 406.264 54.4755 406.264C54.9958 406.264 55.4516 406.374 55.8427 406.592C56.2337 406.808 56.537 407.129 56.7525 407.557C56.9679 407.984 57.0756 408.513 57.0756 409.143V414H55.5891V409.322C55.5891 408.768 55.4449 408.336 55.1566 408.024C54.8682 407.709 54.4721 407.552 53.9684 407.552C53.6237 407.552 53.3171 407.626 53.0486 407.776C52.7835 407.925 52.573 408.143 52.4172 408.432C52.2648 408.717 52.1885 409.062 52.1885 409.466Z" fill="black" fill-opacity="0.38"/>
<path d="M34 459.75C31.66 459.75 27 460.92 27 463.25V465H41V463.25C41 460.92 36.34 459.75 34 459.75ZM29.34 463C30.18 462.42 32.21 461.75 34 461.75C35.79 461.75 37.82 462.42 38.66 463H29.34ZM34 458C35.93 458 37.5 456.43 37.5 454.5C37.5 452.57 35.93 451 34 451C32.07 451 30.5 452.57 30.5 454.5C30.5 456.43 32.07 458 34 458ZM34 453C34.83 453 35.5 453.67 35.5 454.5C35.5 455.33 34.83 456 34 456C33.17 456 32.5 455.33 32.5 454.5C32.5 453.67 33.17 453 34 453ZM41.04 459.81C42.2 460.65 43 461.77 43 463.25V465H47V463.25C47 461.23 43.5 460.08 41.04 459.81ZM40 458C41.93 458 43.5 456.43 43.5 454.5C43.5 452.57 41.93 451 40 451C39.46 451 38.96 451.13 38.5 451.35C39.13 452.24 39.5 453.33 39.5 454.5C39.5 455.67 39.13 456.76 38.5 457.65C38.96 457.87 39.46 458 40 458Z" fill="#212121" fill-opacity="0.5"/>
<path d="M13 500C13 497.791 14.7909 496 17 496H57C59.2091 496 61 497.791 61 500V540C61 542.209 59.2091 544 57 544H17C14.7909 544 13 542.209 13 540V500Z" fill="#594AE2"/>
<path d="M29.085 525.5V524.85C29.085 524.51 29.245 524.19 29.495 524.04C31.185 523.03 33.115 522.5 35.085 522.5C35.115 522.5 35.135 522.5 35.165 522.51C35.265 521.81 35.465 521.14 35.755 520.53C35.535 520.51 35.315 520.5 35.085 520.5C32.665 520.5 30.405 521.17 28.475 522.32C27.595 522.84 27.085 523.82 27.085 524.85V527.5H36.345C35.925 526.9 35.595 526.22 35.375 525.5H29.085Z" fill="white"/>
<path d="M35.085 519.5C37.295 519.5 39.085 517.71 39.085 515.5C39.085 513.29 37.295 511.5 35.085 511.5C32.875 511.5 31.085 513.29 31.085 515.5C31.085 517.71 32.875 519.5 35.085 519.5ZM35.085 513.5C36.185 513.5 37.085 514.4 37.085 515.5C37.085 516.6 36.185 517.5 35.085 517.5C33.985 517.5 33.085 516.6 33.085 515.5C33.085 514.4 33.985 513.5 35.085 513.5Z" fill="white"/>
<path d="M45.835 523.5C45.835 523.28 45.805 523.08 45.775 522.87L46.915 521.86L45.915 520.13L44.465 520.62C44.145 520.35 43.785 520.14 43.385 519.99L43.085 518.5H41.085L40.785 519.99C40.385 520.14 40.025 520.35 39.705 520.62L38.255 520.13L37.255 521.86L38.395 522.87C38.365 523.08 38.335 523.28 38.335 523.5C38.335 523.72 38.365 523.92 38.395 524.13L37.255 525.14L38.255 526.87L39.705 526.38C40.025 526.65 40.385 526.86 40.785 527.01L41.085 528.5H43.085L43.385 527.01C43.785 526.86 44.145 526.65 44.465 526.38L45.915 526.87L46.915 525.14L45.775 524.13C45.805 523.92 45.835 523.72 45.835 523.5ZM42.085 525.5C40.985 525.5 40.085 524.6 40.085 523.5C40.085 522.4 40.985 521.5 42.085 521.5C43.185 521.5 44.085 522.4 44.085 523.5C44.085 524.6 43.185 525.5 42.085 525.5Z" fill="white"/>
<path d="M37 577V573H27V591H47V577H37ZM31 589H29V587H31V589ZM31 585H29V583H31V585ZM31 581H29V579H31V581ZM31 577H29V575H31V577ZM35 589H33V587H35V589ZM35 585H33V583H35V585ZM35 581H33V579H35V581ZM35 577H33V575H35V577ZM45 589H37V587H39V585H37V583H39V581H37V579H45V589ZM43 581H41V583H43V581ZM43 585H41V587H43V585Z" fill="#212121" fill-opacity="0.5"/>
<rect x="11" y="708" width="52" height="52" rx="9.01014" fill="white"/>
<rect x="17" y="714" width="40" height="40" rx="8" fill="#FF4081"/>
<path d="M40.0312 730.276C39.9555 729.603 39.643 729.082 39.0938 728.713C38.5445 728.339 37.8532 728.152 37.0199 728.152C36.4233 728.152 35.9072 728.247 35.4716 728.436C35.036 728.621 34.6974 728.876 34.456 729.203C34.2192 729.525 34.1009 729.892 34.1009 730.304C34.1009 730.65 34.1813 730.948 34.3423 731.199C34.508 731.45 34.7235 731.661 34.9886 731.831C35.2585 731.997 35.5473 732.136 35.8551 732.25C36.1629 732.359 36.4588 732.449 36.7429 732.52L38.1634 732.889C38.6274 733.003 39.1032 733.157 39.5909 733.351C40.0786 733.545 40.5308 733.801 40.9474 734.118C41.3641 734.435 41.7003 734.828 41.956 735.297C42.2164 735.766 42.3466 736.327 42.3466 736.98C42.3466 737.804 42.1335 738.536 41.7074 739.175C41.286 739.814 40.6728 740.318 39.8679 740.688C39.0677 741.057 38.0994 741.241 36.9631 741.241C35.8741 741.241 34.9318 741.069 34.1364 740.723C33.3409 740.377 32.7183 739.887 32.2685 739.253C31.8187 738.614 31.5701 737.856 31.5227 736.98H33.7244C33.767 737.506 33.9375 737.944 34.2358 738.294C34.5388 738.64 34.9247 738.898 35.3935 739.068C35.867 739.234 36.3854 739.317 36.9489 739.317C37.5691 739.317 38.1207 739.22 38.6037 739.026C39.0914 738.827 39.4749 738.552 39.7543 738.202C40.0336 737.847 40.1733 737.432 40.1733 736.959C40.1733 736.528 40.0502 736.175 39.804 735.901C39.5625 735.626 39.2334 735.399 38.8168 735.219C38.4048 735.039 37.9384 734.88 37.4176 734.743L35.6989 734.274C34.5341 733.957 33.6108 733.491 32.929 732.875C32.2519 732.259 31.9134 731.445 31.9134 730.432C31.9134 729.594 32.1406 728.862 32.5952 728.237C33.0497 727.612 33.6652 727.127 34.4418 726.781C35.2183 726.431 36.0942 726.256 37.0696 726.256C38.0545 726.256 38.9233 726.429 39.6761 726.774C40.4337 727.12 41.0303 727.596 41.4659 728.202C41.9015 728.803 42.1288 729.494 42.1477 730.276H40.0312Z" fill="white"/>
<path d="M39.1685 799.73L40.5685 797.31C40.6585 797.16 40.6185 796.97 40.4885 796.86L39.0085 795.7C39.0385 795.48 39.0585 795.25 39.0585 795.02C39.0585 794.79 39.0385 794.56 39.0085 794.33L40.4885 793.17C40.6185 793.06 40.6585 792.87 40.5685 792.72L39.1685 790.3C39.0785 790.15 38.8985 790.09 38.7385 790.15L36.9985 790.85C36.6385 790.57 36.2485 790.34 35.8185 790.16L35.5585 788.31C35.5285 788.15 35.3785 788.02 35.2085 788.02H32.4085C32.2385 788.02 32.0885 788.15 32.0585 788.32L31.7985 790.17C31.3785 790.35 30.9785 790.58 30.6185 790.86L28.8785 790.16C28.7185 790.1 28.5385 790.16 28.4485 790.31L27.0485 792.73C26.9585 792.88 26.9985 793.07 27.1285 793.18L28.6085 794.34C28.5785 794.56 28.5585 794.79 28.5585 795.02C28.5585 795.25 28.5785 795.48 28.6085 795.71L27.1285 796.87C26.9985 796.98 26.9585 797.17 27.0485 797.32L28.4485 799.74C28.5385 799.89 28.7185 799.95 28.8785 799.89L30.6185 799.19C30.9785 799.47 31.3685 799.7 31.7985 799.88L32.0585 801.73C32.0885 801.89 32.2385 802.02 32.4085 802.02H35.2085C35.3785 802.02 35.5285 801.89 35.5585 801.72L35.8185 799.87C36.2385 799.69 36.6385 799.46 36.9985 799.18L38.7385 799.88C38.8985 799.94 39.0785 799.88 39.1685 799.73ZM33.8085 797.02C32.7085 797.02 31.8085 796.12 31.8085 795.02C31.8085 793.92 32.7085 793.02 33.8085 793.02C34.9085 793.02 35.8085 793.92 35.8085 795.02C35.8085 796.12 34.9085 797.02 33.8085 797.02Z" fill="#212121" fill-opacity="0.5"/>
<path d="M46.9185 804.69L45.9585 803.95C45.9785 803.81 45.9985 803.66 45.9985 803.51C45.9985 803.36 45.9885 803.21 45.9585 803.07L46.9085 802.33C46.9885 802.26 47.0185 802.14 46.9585 802.04L46.0585 800.49C46.0085 800.39 45.8885 800.36 45.7785 800.39L44.6685 800.84C44.4385 800.66 44.1885 800.51 43.9085 800.4L43.7385 799.22C43.7285 799.1 43.6285 799.02 43.5285 799.02H41.7385C41.6285 799.02 41.5285 799.1 41.5185 799.21L41.3485 800.39C41.0785 800.51 40.8185 800.65 40.5885 800.83L39.4785 800.38C39.3785 800.34 39.2585 800.38 39.1985 800.48L38.2985 802.03C38.2485 802.13 38.2585 802.25 38.3485 802.32L39.2985 803.06C39.2785 803.2 39.2685 803.35 39.2685 803.5C39.2685 803.65 39.2785 803.8 39.2985 803.94L38.3485 804.68C38.2685 804.75 38.2385 804.87 38.2985 804.97L39.1985 806.52C39.2485 806.62 39.3685 806.65 39.4785 806.62L40.5885 806.17C40.8185 806.35 41.0685 806.5 41.3485 806.61L41.5185 807.79C41.5385 807.9 41.6285 807.98 41.7385 807.98H43.5285C43.6385 807.98 43.7385 807.9 43.7485 807.79L43.9185 806.61C44.1885 806.49 44.4485 806.35 44.6685 806.17L45.7885 806.62C45.8885 806.66 46.0085 806.62 46.0685 806.52L46.9685 804.97C47.0285 804.88 46.9985 804.76 46.9185 804.69ZM42.6285 804.85C41.8885 804.85 41.2785 804.25 41.2785 803.5C41.2785 802.75 41.8785 802.15 42.6285 802.15C43.3785 802.15 43.9785 802.75 43.9785 803.5C43.9785 804.25 43.3685 804.85 42.6285 804.85Z" fill="#212121" fill-opacity="0.5"/>
<path d="M42 856L40.59 857.41L42.17 859H34V861H42.17L40.59 862.58L42 864L46 860L42 856ZM30 853H37V851H30C28.9 851 28 851.9 28 853V867C28 868.1 28.9 869 30 869H37V867H30V853Z" fill="#F44336"/>
<path d="M0 689H84" stroke="#E0E0E0"/>
</svg>
