<svg width="1366" height="40" viewBox="0 0 1366 40" fill="none" xmlns="http://www.w3.org/2000/svg">
<rect width="1366" height="40" fill="#F5F5F5"/>
<path d="M17.1186 24.5V14.3182H20.7479C21.5367 14.3182 22.1913 14.4541 22.7116 14.7259C23.2353 14.9976 23.6264 15.3738 23.8849 15.8544C24.1435 16.3317 24.2727 16.8835 24.2727 17.5099C24.2727 18.133 24.1418 18.6816 23.88 19.1555C23.6214 19.6262 23.2304 19.9924 22.7067 20.2543C22.1863 20.5161 21.5317 20.647 20.7429 20.647H17.9936V19.3246H20.6037C21.1009 19.3246 21.5052 19.2533 21.8168 19.1108C22.1316 18.9683 22.362 18.7611 22.5078 18.4893C22.6536 18.2176 22.7266 17.8911 22.7266 17.5099C22.7266 17.1255 22.652 16.7924 22.5028 16.5107C22.357 16.2289 22.1267 16.0135 21.8118 15.8643C21.5002 15.7119 21.0909 15.6357 20.5838 15.6357H18.6548V24.5H17.1186ZM22.1449 19.9062L24.6605 24.5H22.9105L20.4446 19.9062H22.1449ZM29.3682 24.6541C28.6158 24.6541 27.9679 24.4934 27.4243 24.1719C26.8841 23.8471 26.4665 23.3913 26.1715 22.8047C25.8798 22.2147 25.734 21.5237 25.734 20.7315C25.734 19.9493 25.8798 19.2599 26.1715 18.6634C26.4665 18.0668 26.8774 17.6011 27.4044 17.2663C27.9347 16.9316 28.5545 16.7642 29.2638 16.7642C29.6947 16.7642 30.1123 16.8355 30.5167 16.978C30.921 17.1205 31.2839 17.3442 31.6054 17.6491C31.9269 17.9541 32.1805 18.3501 32.3661 18.8374C32.5517 19.3213 32.6445 19.9096 32.6445 20.6023V21.1293H26.5742V20.0156H31.1878C31.1878 19.6245 31.1083 19.2782 30.9492 18.9766C30.7901 18.6716 30.5664 18.4313 30.278 18.2557C29.993 18.08 29.6582 17.9922 29.2738 17.9922C28.8561 17.9922 28.4916 18.0949 28.18 18.3004C27.8718 18.5026 27.6331 18.7678 27.4641 19.0959C27.2984 19.4207 27.2155 19.7737 27.2155 20.1548V21.0249C27.2155 21.5353 27.305 21.9695 27.484 22.3274C27.6663 22.6854 27.9198 22.9588 28.2446 23.1477C28.5694 23.3333 28.9489 23.4261 29.3831 23.4261C29.6649 23.4261 29.9217 23.3864 30.1537 23.3068C30.3857 23.224 30.5863 23.1013 30.7553 22.9389C30.9243 22.7765 31.0536 22.576 31.1431 22.3374L32.55 22.5909C32.4373 23.0052 32.2352 23.3681 31.9435 23.6797C31.6551 23.9879 31.2922 24.2282 30.8547 24.4006C30.4205 24.5696 29.925 24.6541 29.3682 24.6541ZM40.1661 18.728L38.8188 18.9666C38.7625 18.7943 38.673 18.6302 38.5504 18.4744C38.431 18.3187 38.2686 18.1911 38.0631 18.0916C37.8576 17.9922 37.6008 17.9425 37.2925 17.9425C36.8716 17.9425 36.5203 18.0369 36.2386 18.2259C35.9568 18.4115 35.816 18.6518 35.816 18.9467C35.816 19.2019 35.9104 19.4074 36.0994 19.5632C36.2883 19.719 36.5932 19.8466 37.0141 19.946L38.2272 20.2244C38.9299 20.3868 39.4535 20.6371 39.7982 20.9751C40.1429 21.3132 40.3153 21.7524 40.3153 22.2926C40.3153 22.75 40.1827 23.1577 39.9175 23.5156C39.6557 23.8703 39.2895 24.1487 38.8188 24.3509C38.3515 24.553 37.8096 24.6541 37.1931 24.6541C36.338 24.6541 35.6403 24.4718 35.1001 24.1072C34.5598 23.7393 34.2284 23.2173 34.1058 22.5412L35.5425 22.3224C35.632 22.697 35.816 22.9804 36.0944 23.1726C36.3728 23.3615 36.7357 23.456 37.1832 23.456C37.6704 23.456 38.0598 23.3549 38.3515 23.1527C38.6432 22.9472 38.789 22.697 38.789 22.402C38.789 22.1634 38.6995 21.9628 38.5205 21.8004C38.3449 21.638 38.0747 21.5154 37.7102 21.4325L36.4175 21.1491C35.7049 20.9867 35.178 20.7282 34.8366 20.3736C34.4985 20.0189 34.3295 19.5698 34.3295 19.0263C34.3295 18.5755 34.4554 18.1811 34.7073 17.843C34.9592 17.505 35.3072 17.2415 35.7513 17.0526C36.1955 16.8603 36.7042 16.7642 37.2776 16.7642C38.1029 16.7642 38.7525 16.9432 39.2265 17.3011C39.7004 17.6558 40.0137 18.1314 40.1661 18.728ZM45.3163 24.6541C44.6004 24.6541 43.9756 24.4901 43.442 24.1619C42.9084 23.8338 42.4941 23.3748 42.1991 22.7848C41.9041 22.1948 41.7566 21.5054 41.7566 20.7166C41.7566 19.9245 41.9041 19.2318 42.1991 18.6385C42.4941 18.0452 42.9084 17.5845 43.442 17.2564C43.9756 16.9283 44.6004 16.7642 45.3163 16.7642C46.0322 16.7642 46.657 16.9283 47.1906 17.2564C47.7242 17.5845 48.1385 18.0452 48.4335 18.6385C48.7285 19.2318 48.876 19.9245 48.876 20.7166C48.876 21.5054 48.7285 22.1948 48.4335 22.7848C48.1385 23.3748 47.7242 23.8338 47.1906 24.1619C46.657 24.4901 46.0322 24.6541 45.3163 24.6541ZM45.3213 23.4062C45.7853 23.4062 46.1698 23.2836 46.4747 23.0384C46.7796 22.7931 47.005 22.4666 47.1508 22.0589C47.3 21.6513 47.3745 21.2022 47.3745 20.7116C47.3745 20.2244 47.3 19.777 47.1508 19.3693C47.005 18.9583 46.7796 18.6286 46.4747 18.38C46.1698 18.1314 45.7853 18.0071 45.3213 18.0071C44.8539 18.0071 44.4662 18.1314 44.1579 18.38C43.853 18.6286 43.626 18.9583 43.4768 19.3693C43.331 19.777 43.2581 20.2244 43.2581 20.7116C43.2581 21.2022 43.331 21.6513 43.4768 22.0589C43.626 22.4666 43.853 22.7931 44.1579 23.0384C44.4662 23.2836 44.8539 23.4062 45.3213 23.4062ZM55.5226 21.3331V16.8636H57.0141V24.5H55.5524V23.1776H55.4729C55.2972 23.5852 55.0155 23.925 54.6277 24.1967C54.2432 24.4652 53.7643 24.5994 53.1909 24.5994C52.7004 24.5994 52.2662 24.4917 51.8884 24.2763C51.5138 24.0575 51.2188 23.7344 51.0034 23.3068C50.7913 22.8793 50.6852 22.3506 50.6852 21.7209V16.8636H52.1717V21.5419C52.1717 22.0623 52.3159 22.4766 52.6043 22.7848C52.8926 23.093 53.2671 23.2472 53.7278 23.2472C54.0062 23.2472 54.283 23.1776 54.5581 23.0384C54.8365 22.8991 55.0669 22.6887 55.2491 22.407C55.4348 22.1252 55.5259 21.7673 55.5226 21.3331ZM59.1614 24.5V16.8636H60.5982V18.0767H60.6777C60.8169 17.6657 61.0622 17.3426 61.4135 17.1072C61.7682 16.8686 62.1692 16.7493 62.6167 16.7493C62.7095 16.7493 62.8188 16.7526 62.9448 16.7592C63.074 16.7659 63.1751 16.7741 63.248 16.7841V18.206C63.1884 18.1894 63.0823 18.1712 62.9299 18.1513C62.7774 18.1281 62.6249 18.1165 62.4725 18.1165C62.1212 18.1165 61.8079 18.1911 61.5328 18.3402C61.2611 18.486 61.0456 18.6899 60.8865 18.9517C60.7275 19.2102 60.6479 19.5052 60.6479 19.8366V24.5H59.1614ZM67.6276 24.6541C66.8885 24.6541 66.2522 24.4867 65.7185 24.152C65.1882 23.8139 64.7806 23.3482 64.4955 22.755C64.2105 22.1617 64.068 21.4822 64.068 20.7166C64.068 19.9411 64.2138 19.2566 64.5055 18.6634C64.7971 18.0668 65.2081 17.6011 65.7384 17.2663C66.2687 16.9316 66.8935 16.7642 67.6127 16.7642C68.1927 16.7642 68.7098 16.8719 69.1639 17.0874C69.6179 17.2995 69.9842 17.5978 70.2626 17.9822C70.5443 18.3667 70.7117 18.8158 70.7647 19.3295H69.318C69.2384 18.9716 69.0561 18.6634 68.7711 18.4048C68.4894 18.1463 68.1115 18.017 67.6376 18.017C67.2233 18.017 66.8603 18.1264 66.5488 18.3452C66.2406 18.5606 66.0003 18.8688 65.8279 19.2699C65.6556 19.6676 65.5694 20.1383 65.5694 20.6818C65.5694 21.2386 65.6539 21.7192 65.8229 22.1236C65.992 22.5279 66.2306 22.8411 66.5389 23.0632C66.8504 23.2853 67.2166 23.3963 67.6376 23.3963C67.9193 23.3963 68.1745 23.3449 68.4032 23.2422C68.6352 23.1361 68.8291 22.9853 68.9849 22.7898C69.144 22.5942 69.255 22.3589 69.318 22.0838H70.7647C70.7117 22.5777 70.5509 23.0185 70.2825 23.4062C70.014 23.794 69.6544 24.099 69.2036 24.321C68.7562 24.5431 68.2308 24.6541 67.6276 24.6541ZM75.7956 24.6541C75.0432 24.6541 74.3952 24.4934 73.8517 24.1719C73.3114 23.8471 72.8938 23.3913 72.5988 22.8047C72.3072 22.2147 72.1613 21.5237 72.1613 20.7315C72.1613 19.9493 72.3072 19.2599 72.5988 18.6634C72.8938 18.0668 73.3048 17.6011 73.8318 17.2663C74.3621 16.9316 74.9819 16.7642 75.6912 16.7642C76.122 16.7642 76.5396 16.8355 76.944 16.978C77.3484 17.1205 77.7113 17.3442 78.0328 17.6491C78.3543 17.9541 78.6078 18.3501 78.7934 18.8374C78.979 19.3213 79.0718 19.9096 79.0718 20.6023V21.1293H73.0015V20.0156H77.6152C77.6152 19.6245 77.5356 19.2782 77.3765 18.9766C77.2174 18.6716 76.9937 18.4313 76.7054 18.2557C76.4203 18.08 76.0856 17.9922 75.7011 17.9922C75.2835 17.9922 74.9189 18.0949 74.6074 18.3004C74.2991 18.5026 74.0605 18.7678 73.8914 19.0959C73.7257 19.4207 73.6429 19.7737 73.6429 20.1548V21.0249C73.6429 21.5353 73.7324 21.9695 73.9113 22.3274C74.0936 22.6854 74.3472 22.9588 74.672 23.1477C74.9968 23.3333 75.3763 23.4261 75.8105 23.4261C76.0922 23.4261 76.3491 23.3864 76.5811 23.3068C76.8131 23.224 77.0136 23.1013 77.1826 22.9389C77.3517 22.7765 77.4809 22.576 77.5704 22.3374L78.9774 22.5909C78.8647 23.0052 78.6625 23.3681 78.3708 23.6797C78.0825 23.9879 77.7196 24.2282 77.2821 24.4006C76.8479 24.5696 76.3524 24.6541 75.7956 24.6541ZM84.8456 14.3182H86.7099L89.9514 22.233H90.0707L93.3122 14.3182H95.1765V24.5H93.7149V17.1321H93.6204L90.6176 24.4851H89.4045L86.4017 17.1271H86.3072V24.5H84.8456V14.3182ZM100.657 24.6541C99.9414 24.6541 99.3166 24.4901 98.783 24.1619C98.2494 23.8338 97.8351 23.3748 97.5401 22.7848C97.2451 22.1948 97.0977 21.5054 97.0977 20.7166C97.0977 19.9245 97.2451 19.2318 97.5401 18.6385C97.8351 18.0452 98.2494 17.5845 98.783 17.2564C99.3166 16.9283 99.9414 16.7642 100.657 16.7642C101.373 16.7642 101.998 16.9283 102.532 17.2564C103.065 17.5845 103.48 18.0452 103.775 18.6385C104.069 19.2318 104.217 19.9245 104.217 20.7166C104.217 21.5054 104.069 22.1948 103.775 22.7848C103.48 23.3748 103.065 23.8338 102.532 24.1619C101.998 24.4901 101.373 24.6541 100.657 24.6541ZM100.662 23.4062C101.126 23.4062 101.511 23.2836 101.816 23.0384C102.121 22.7931 102.346 22.4666 102.492 22.0589C102.641 21.6513 102.716 21.2022 102.716 20.7116C102.716 20.2244 102.641 19.777 102.492 19.3693C102.346 18.9583 102.121 18.6286 101.816 18.38C101.511 18.1314 101.126 18.0071 100.662 18.0071C100.195 18.0071 99.8072 18.1314 99.4989 18.38C99.194 18.6286 98.967 18.9583 98.8178 19.3693C98.672 19.777 98.5991 20.2244 98.5991 20.7116C98.5991 21.2022 98.672 21.6513 98.8178 22.0589C98.967 22.4666 99.194 22.7931 99.4989 23.0384C99.8072 23.2836 100.195 23.4062 100.662 23.4062ZM108.885 24.6491C108.268 24.6491 107.718 24.4917 107.234 24.1768C106.754 23.8587 106.376 23.4062 106.101 22.8196C105.829 22.2296 105.693 21.522 105.693 20.6967C105.693 19.8714 105.831 19.1655 106.106 18.5788C106.384 17.9922 106.765 17.5431 107.249 17.2315C107.733 16.92 108.282 16.7642 108.895 16.7642C109.369 16.7642 109.75 16.8438 110.038 17.0028C110.33 17.1586 110.555 17.3409 110.714 17.5497C110.877 17.7585 111.003 17.9425 111.092 18.1016H111.182V14.3182H112.668V24.5H111.217V23.3118H111.092C111.003 23.4742 110.874 23.6598 110.705 23.8686C110.539 24.0774 110.31 24.2597 110.018 24.4155C109.727 24.5713 109.349 24.6491 108.885 24.6491ZM109.213 23.3814C109.641 23.3814 110.002 23.2687 110.297 23.0433C110.595 22.8146 110.821 22.4981 110.973 22.0938C111.129 21.6894 111.207 21.2187 111.207 20.6818C111.207 20.1515 111.13 19.6875 110.978 19.2898C110.825 18.892 110.602 18.5821 110.307 18.3601C110.012 18.138 109.647 18.027 109.213 18.027C108.766 18.027 108.393 18.143 108.094 18.375C107.796 18.607 107.571 18.9235 107.418 19.3246C107.269 19.7256 107.195 20.178 107.195 20.6818C107.195 21.1922 107.271 21.6513 107.423 22.0589C107.576 22.4666 107.801 22.7898 108.099 23.0284C108.401 23.2637 108.772 23.3814 109.213 23.3814ZM118.231 24.6541C117.479 24.6541 116.831 24.4934 116.287 24.1719C115.747 23.8471 115.329 23.3913 115.034 22.8047C114.743 22.2147 114.597 21.5237 114.597 20.7315C114.597 19.9493 114.743 19.2599 115.034 18.6634C115.329 18.0668 115.74 17.6011 116.267 17.2663C116.798 16.9316 117.417 16.7642 118.127 16.7642C118.558 16.7642 118.975 16.8355 119.38 16.978C119.784 17.1205 120.147 17.3442 120.468 17.6491C120.79 17.9541 121.043 18.3501 121.229 18.8374C121.415 19.3213 121.507 19.9096 121.507 20.6023V21.1293H115.437V20.0156H120.051C120.051 19.6245 119.971 19.2782 119.812 18.9766C119.653 18.6716 119.429 18.4313 119.141 18.2557C118.856 18.08 118.521 17.9922 118.137 17.9922C117.719 17.9922 117.354 18.0949 117.043 18.3004C116.735 18.5026 116.496 18.7678 116.327 19.0959C116.161 19.4207 116.078 19.7737 116.078 20.1548V21.0249C116.078 21.5353 116.168 21.9695 116.347 22.3274C116.529 22.6854 116.783 22.9588 117.108 23.1477C117.432 23.3333 117.812 23.4261 118.246 23.4261C118.528 23.4261 118.785 23.3864 119.017 23.3068C119.249 23.224 119.449 23.1013 119.618 22.9389C119.787 22.7765 119.916 22.576 120.006 22.3374L121.413 22.5909C121.3 23.0052 121.098 23.3681 120.806 23.6797C120.518 23.9879 120.155 24.2282 119.718 24.4006C119.283 24.5696 118.788 24.6541 118.231 24.6541ZM124.793 14.3182V24.5H123.307V14.3182H124.793Z" fill="#594AE2"/>
<path d="M143.574 13.8182L139.824 27.75H138.307L142.057 13.8182H143.574Z" fill="#9E9E9E"/>
<path d="M162.801 16.8636C162.741 16.3598 162.5 15.9688 162.075 15.6903C161.651 15.4119 161.131 15.2727 160.514 15.2727C160.063 15.2727 159.669 15.3456 159.331 15.4915C158.996 15.6373 158.734 15.8378 158.545 16.093C158.36 16.3482 158.267 16.6383 158.267 16.9631C158.267 17.2348 158.332 17.4685 158.461 17.6641C158.594 17.8563 158.763 18.017 158.968 18.1463C159.174 18.2723 159.389 18.3767 159.614 18.4595C159.84 18.5391 160.047 18.6037 160.236 18.6534L161.27 18.9318C161.535 19.0014 161.83 19.0975 162.155 19.2202C162.483 19.3428 162.796 19.5102 163.094 19.7223C163.396 19.9311 163.645 20.1996 163.84 20.5277C164.036 20.8558 164.134 21.2585 164.134 21.7358C164.134 22.286 163.989 22.7831 163.701 23.2273C163.416 23.6714 162.998 24.0244 162.448 24.2862C161.901 24.5481 161.237 24.679 160.455 24.679C159.725 24.679 159.094 24.5613 158.56 24.326C158.03 24.0907 157.612 23.7625 157.308 23.3416C157.006 22.9207 156.835 22.4318 156.795 21.875H158.068C158.101 22.2595 158.231 22.5777 158.456 22.8295C158.685 23.0781 158.973 23.2637 159.321 23.3864C159.672 23.5057 160.05 23.5653 160.455 23.5653C160.925 23.5653 161.348 23.4891 161.722 23.3366C162.097 23.1809 162.393 22.9654 162.612 22.6903C162.831 22.4119 162.94 22.0871 162.94 21.7159C162.94 21.3778 162.846 21.1027 162.657 20.8906C162.468 20.6785 162.219 20.5062 161.911 20.3736C161.603 20.241 161.27 20.125 160.912 20.0256L159.659 19.6676C158.864 19.4389 158.234 19.1125 157.77 18.6882C157.306 18.264 157.074 17.7088 157.074 17.0227C157.074 16.4527 157.228 15.9555 157.536 15.5312C157.848 15.1037 158.265 14.7723 158.789 14.5369C159.316 14.2983 159.904 14.179 160.554 14.179C161.21 14.179 161.794 14.2966 162.304 14.532C162.814 14.764 163.219 15.0821 163.517 15.4865C163.819 15.8909 163.978 16.3499 163.994 16.8636H162.801ZM169.353 24.6591C168.618 24.6591 167.983 24.4967 167.449 24.1719C166.919 23.8438 166.51 23.3864 166.221 22.7997C165.936 22.2098 165.794 21.5237 165.794 20.7415C165.794 19.9593 165.936 19.2699 166.221 18.6733C166.51 18.0734 166.911 17.6061 167.424 17.2713C167.941 16.9332 168.545 16.7642 169.234 16.7642C169.632 16.7642 170.024 16.8305 170.412 16.9631C170.8 17.0956 171.153 17.3111 171.471 17.6094C171.789 17.9044 172.043 18.2955 172.232 18.7827C172.421 19.2699 172.515 19.8698 172.515 20.5824V21.0795H166.629V20.0653H171.322C171.322 19.6345 171.236 19.25 171.064 18.9119C170.894 18.5739 170.653 18.3071 170.338 18.1115C170.026 17.916 169.658 17.8182 169.234 17.8182C168.767 17.8182 168.362 17.9342 168.021 18.1662C167.683 18.3949 167.423 18.6932 167.24 19.0611C167.058 19.429 166.967 19.8234 166.967 20.2443V20.9205C166.967 21.4972 167.066 21.986 167.265 22.3871C167.467 22.7848 167.747 23.0881 168.105 23.2969C168.463 23.5024 168.879 23.6051 169.353 23.6051C169.662 23.6051 169.94 23.562 170.189 23.4759C170.44 23.3864 170.658 23.2538 170.84 23.0781C171.022 22.8991 171.163 22.6771 171.262 22.4119L172.396 22.7301C172.277 23.1146 172.076 23.4527 171.794 23.7443C171.513 24.0327 171.165 24.258 170.75 24.4205C170.336 24.5795 169.87 24.6591 169.353 24.6591ZM174.45 24.5V16.8636H175.584V18.017H175.663C175.802 17.6392 176.054 17.3326 176.419 17.0973C176.783 16.862 177.194 16.7443 177.652 16.7443C177.738 16.7443 177.846 16.746 177.975 16.7493C178.104 16.7526 178.202 16.7576 178.268 16.7642V17.9574C178.228 17.9474 178.137 17.9325 177.995 17.9126C177.856 17.8894 177.708 17.8778 177.552 17.8778C177.181 17.8778 176.85 17.9557 176.558 18.1115C176.27 18.264 176.041 18.4761 175.872 18.7479C175.706 19.0163 175.623 19.3229 175.623 19.6676V24.5H174.45ZM186.286 16.8636L183.462 24.5H182.269L179.445 16.8636H180.718L182.826 22.9489H182.905L185.013 16.8636H186.286ZM187.984 24.5V16.8636H189.158V24.5H187.984ZM188.581 15.5909C188.352 15.5909 188.155 15.513 187.989 15.3572C187.827 15.2015 187.746 15.0142 187.746 14.7955C187.746 14.5767 187.827 14.3894 187.989 14.2337C188.155 14.0779 188.352 14 188.581 14C188.81 14 189.005 14.0779 189.168 14.2337C189.333 14.3894 189.416 14.5767 189.416 14.7955C189.416 15.0142 189.333 15.2015 189.168 15.3572C189.005 15.513 188.81 15.5909 188.581 15.5909ZM194.559 24.6591C193.843 24.6591 193.227 24.4901 192.71 24.152C192.192 23.8139 191.795 23.3482 191.516 22.755C191.238 22.1617 191.099 21.4839 191.099 20.7216C191.099 19.946 191.241 19.2616 191.526 18.6683C191.815 18.0717 192.216 17.6061 192.729 17.2713C193.246 16.9332 193.85 16.7642 194.539 16.7642C195.076 16.7642 195.56 16.8636 195.991 17.0625C196.422 17.2614 196.775 17.5398 197.05 17.8977C197.325 18.2557 197.496 18.6733 197.562 19.1506H196.388C196.299 18.8026 196.1 18.4943 195.792 18.2259C195.487 17.9541 195.076 17.8182 194.559 17.8182C194.102 17.8182 193.701 17.9375 193.356 18.1761C193.014 18.4115 192.748 18.7446 192.555 19.1754C192.366 19.603 192.272 20.1051 192.272 20.6818C192.272 21.2718 192.365 21.7855 192.55 22.223C192.739 22.6605 193.004 23.0002 193.346 23.2422C193.691 23.4841 194.095 23.6051 194.559 23.6051C194.864 23.6051 195.141 23.5521 195.389 23.446C195.638 23.34 195.848 23.1875 196.021 22.9886C196.193 22.7898 196.316 22.5511 196.388 22.2727H197.562C197.496 22.7235 197.331 23.1295 197.07 23.4908C196.811 23.8487 196.468 24.1338 196.04 24.3459C195.616 24.5547 195.122 24.6591 194.559 24.6591ZM202.629 24.6591C201.893 24.6591 201.258 24.4967 200.725 24.1719C200.194 23.8438 199.785 23.3864 199.497 22.7997C199.212 22.2098 199.069 21.5237 199.069 20.7415C199.069 19.9593 199.212 19.2699 199.497 18.6733C199.785 18.0734 200.186 17.6061 200.7 17.2713C201.217 16.9332 201.82 16.7642 202.509 16.7642C202.907 16.7642 203.3 16.8305 203.688 16.9631C204.075 17.0956 204.428 17.3111 204.747 17.6094C205.065 17.9044 205.318 18.2955 205.507 18.7827C205.696 19.2699 205.791 19.8698 205.791 20.5824V21.0795H199.904V20.0653H204.597C204.597 19.6345 204.511 19.25 204.339 18.9119C204.17 18.5739 203.928 18.3071 203.613 18.1115C203.302 17.916 202.934 17.8182 202.509 17.8182C202.042 17.8182 201.638 17.9342 201.296 18.1662C200.958 18.3949 200.698 18.6932 200.516 19.0611C200.333 19.429 200.242 19.8234 200.242 20.2443V20.9205C200.242 21.4972 200.342 21.986 200.541 22.3871C200.743 22.7848 201.023 23.0881 201.381 23.2969C201.739 23.5024 202.155 23.6051 202.629 23.6051C202.937 23.6051 203.215 23.562 203.464 23.4759C203.716 23.3864 203.933 23.2538 204.115 23.0781C204.297 22.8991 204.438 22.6771 204.538 22.4119L205.671 22.7301C205.552 23.1146 205.351 23.4527 205.07 23.7443C204.788 24.0327 204.44 24.258 204.026 24.4205C203.611 24.5795 203.146 24.6591 202.629 24.6591Z" fill="#424242"/>
</svg>
